<svg width="102" height="14" fill="none" xmlns="http://www.w3.org/2000/svg"><path fill-rule="evenodd" clip-rule="evenodd" d="M101.618.747l.144 13.225h-3.18V3.549s-5.994-.013-10.466-.013l-.39-.001c-1.734-.01-2.44-.013-3.276 1.88-1.073 2.428-2.97 8.557-2.97 8.557h-3.34s2.409-7.915 3.533-10.436C82.922.734 85.45.736 88.48.74h.287c5.422 0 12.851.008 12.851.008zM44.117.742A2429.73 2429.73 0 0038.16.74a2179.56 2179.56 0 00-5.956 0c-3.954.01-5.947 1.968-5.901 5.93.03 2.434 0 7.304 0 7.304h3.052s-.029-3.91-.001-5.863c.06-4.333.257-4.575 4.554-4.572 1.137 0 1.804.001 2.601.003.009.008.405.007 1.3.005h.004l.348-.001 1.642.005c.807-.01 1.474-.012 2.61-.012 4.298-.003 4.494.24 4.555 4.572.028 1.953-.001 5.863-.001 5.863h3.053s-.03-4.87-.001-7.304c.047-3.963-1.947-5.921-5.902-5.928zm-23.675 10.42s-8.365.01-12.836.013c-4.298.003-4.494-.24-4.555-4.572C3.024 4.65 3.053.74 3.053.74H0s.03 4.87 0 7.304c-.046 3.963 1.948 5.921 5.903 5.928 5.422.009 17.575-.008 17.575-.008L23.623.74h-3.18v10.422zm45.384.035l2.601.004c4.038.002 4.455-.212 4.542-3.831-.087-3.62-.504-3.834-4.542-3.831-1.136 0-1.803.002-2.6.003l-.01.01s-.498-.003-1.642-.006c-1.144.003-1.642.006-1.642.006l-.01-.01c-.797-.001-1.464-.003-2.6-.003-4.038-.003-4.456.212-4.542 3.83.086 3.62.504 3.834 4.541 3.832l2.601-.004.01-.01s.498.004 1.642.007c1.144-.003 1.642-.006 1.642-.006l.01.01zM70.131.742c3.718.006 5.702 1.738 5.888 5.237h.008a2.702 2.702 0 00-.005.171l.001.031c.006.16.012.32.01.489l-.007.7.007.7c.002.178-.005.348-.011.519.001.1.003.15.005.171h-.008c-.186 3.5-2.17 5.231-5.888 5.237-2.157.004-4.235.003-5.956.001-1.72.002-3.798.003-5.955 0-3.718-.007-5.702-1.739-5.888-5.238h-.008c.002-.021.003-.072.005-.171l-.001-.017c-.006-.165-.012-.33-.01-.502l.007-.7-.007-.7c-.002-.173.004-.338.01-.502V6.15c0-.1-.003-.15-.005-.171h.01C52.517 2.48 54.501.748 58.22.742c2.157-.003 4.234-.003 5.955-.001a2319.4 2319.4 0 015.956.001z" fill="#2B3037"/></svg>