<svg width="102" height="14" viewBox="0 0 102 14" fill="none" xmlns="http://www.w3.org/2000/svg">
<path fill-rule="evenodd" clip-rule="evenodd" d="M101.618 0.747147L101.762 13.9718H98.5813V3.54912C98.5813 3.54912 92.5879 3.53612 88.1164 3.53612C87.981 3.53612 87.8513 3.53545 87.7268 3.53481C85.9924 3.52583 85.2862 3.52217 84.4496 5.4149C83.3767 7.84288 81.4808 13.9718 81.4808 13.9718H78.1389C78.1389 13.9718 80.5475 6.05656 81.6719 3.53612C82.9223 0.73439 85.4509 0.73671 88.4795 0.739426C88.5748 0.739517 88.6705 0.739609 88.7668 0.739609C94.1887 0.739609 101.618 0.747147 101.618 0.747147ZM44.1169 0.741928C41.9592 0.738449 39.8818 0.738754 38.1612 0.740769C36.4402 0.738754 34.3628 0.738449 32.2051 0.741928C28.2498 0.748581 26.2566 2.70741 26.3034 6.66963C26.3323 9.10396 26.3026 13.974 26.3026 13.974H29.3554C29.3554 13.974 29.3265 10.0644 29.3537 8.11079C29.4147 3.77834 29.611 3.53612 33.9085 3.53871C35.045 3.53929 35.7121 3.54045 36.5093 3.54189C36.5178 3.5504 36.9139 3.54924 37.8093 3.54665H37.8132L38.1612 3.54564C39.3052 3.54881 39.8032 3.55144 39.8032 3.55144C40.6099 3.54045 41.277 3.53929 42.4136 3.53871C46.7111 3.53612 46.9073 3.77834 46.9683 8.11079C46.9958 10.0644 46.9666 13.974 46.9666 13.974H50.0195C50.0195 13.974 49.9897 9.10396 50.0186 6.66963C50.0657 2.70741 48.0722 0.748581 44.1169 0.741928ZM20.4423 11.1623C20.4423 11.1623 12.0774 11.1727 7.6059 11.1753C3.3084 11.1779 3.11185 10.9357 3.05144 6.6032C3.02398 4.64955 3.05288 0.73967 3.05288 0.73967H0C0 0.73967 0.0294825 5.61006 0.000867131 8.04439C-0.045958 12.0066 1.94758 13.9654 5.90256 13.9721C11.3247 13.9808 23.4784 13.9643 23.4784 13.9643L23.623 0.73967H20.4423V11.1623ZM65.8265 11.1974C66.6237 11.1988 67.2908 11.2 68.4273 11.2005C72.4649 11.2031 72.8823 10.9887 72.9687 7.36986C72.8823 3.75075 72.4649 3.53627 68.4273 3.53886C67.2908 3.53944 66.6237 3.5406 65.8265 3.54204L65.8172 3.55159C65.8172 3.55159 65.3189 3.54869 64.1749 3.54582C63.0308 3.54869 62.5325 3.55159 62.5325 3.55159L62.5233 3.54204C61.7261 3.5406 61.0587 3.53944 59.9225 3.53886C55.8845 3.53627 55.4674 3.75075 55.381 7.36986C55.4674 10.9887 55.8845 11.2031 59.9225 11.2005C61.0587 11.2 61.7261 11.1988 62.5233 11.1974L62.5325 11.1879C62.5325 11.1879 63.0308 11.1907 64.1749 11.1939C65.3189 11.1907 65.8172 11.1879 65.8172 11.1879L65.8265 11.1974ZM70.1314 0.741959C73.8491 0.748032 75.8328 2.48 76.0187 5.97887H76.0274C76.0253 6.00026 76.0233 6.05083 76.0219 6.14998L76.023 6.18129C76.029 6.34166 76.035 6.50172 76.0331 6.66969C76.03 6.93675 76.0276 7.16512 76.0256 7.36974C76.0276 7.57411 76.03 7.80244 76.0331 8.06953C76.0352 8.24843 76.0282 8.41838 76.0219 8.58894C76.0233 8.68837 76.0253 8.73866 76.0274 8.76033H76.0187C75.8328 12.2592 73.8491 13.9912 70.1314 13.9972C67.9737 14.0007 65.8961 14.0004 64.1754 13.9984C62.4544 14.0004 60.3771 14.0007 58.2197 13.9972C54.5017 13.9912 52.518 12.2592 52.3321 8.76033H52.3235C52.3255 8.73866 52.3272 8.68837 52.3287 8.58894L52.328 8.57201C52.3219 8.40709 52.3157 8.24251 52.3177 8.06953C52.3209 7.80244 52.3232 7.57411 52.3252 7.36974C52.3232 7.16512 52.3209 6.93675 52.3177 6.66969C52.3157 6.4969 52.3218 6.33247 52.328 6.16756L52.3287 6.14998C52.3272 6.05083 52.3255 6.00026 52.3235 5.97887H52.3321C52.518 2.48 54.5017 0.748032 58.2197 0.741959C60.3771 0.73851 62.4544 0.738785 64.1754 0.740524C65.8961 0.738785 67.9737 0.73851 70.1314 0.741959Z" fill="#2B3037"/>
</svg>
